<?xml version="1.0" encoding="utf-8"?>
<!-- Generator: Adobe Illustrator 27.5.0, SVG Export Plug-In . SVG Version: 6.00 Build 0)  -->
<svg version="1.1" id="Capa_1" xmlns="http://www.w3.org/2000/svg" xmlns:xlink="http://www.w3.org/1999/xlink" x="0px" y="0px"
	 viewBox="0 0 425.2 425.2" style="enable-background:new 0 0 425.2 425.2;" xml:space="preserve">
<g>
	<rect x="0.001" y="0" style="fill:#FFFFFF;" width="425.197" height="425.2"/>
	<path style="fill:#BCE1E5;" d="M388.646,287.963h-54.598c9.711,0,17.582-9.572,17.582-21.381c0-11.809-7.871-21.382-17.582-21.382
		h42.568c9.711,0,17.582-9.573,17.582-21.382c0-11.809-7.871-21.381-17.582-21.381h-8.031c5.258-3.697,8.801-10.591,8.801-18.505
		c0-8.914-4.486-16.547-10.861-19.757h20.578c9.711,0,17.584-9.573,17.584-21.382c0-11.809-7.873-21.382-17.584-21.382h-54.596
		c9.709,0,17.58-9.573,17.58-21.381c0-11.809-7.871-21.381-17.58-21.381h42.566c9.711,0,17.582-9.573,17.582-21.382
		c0-11.809-7.871-21.382-17.582-21.382H30.988c-9.709,0-17.582,9.573-17.582,21.382c0,11.809,7.873,21.382,17.582,21.382h22.211
		c-9.711,0-17.584,9.572-17.584,21.381c0,11.808,7.873,21.381,17.584,21.381h-10.18c-9.711,0-17.584,9.573-17.584,21.382
		c0,11.809,7.873,21.382,17.584,21.382h30.758c-6.377,3.21-10.863,10.843-10.863,19.757c0,7.914,3.545,14.808,8.801,18.505H32.531
		c-9.711,0-17.582,9.572-17.582,21.381c0,11.809,7.871,21.382,17.582,21.382H54.74c-9.709,0-17.582,9.573-17.582,21.382
		c0,11.809,7.873,21.381,17.582,21.381H44.562c-9.711,0-17.584,9.573-17.584,21.382c0,11.81,7.873,21.382,17.584,21.382H75.32
		c-6.375,3.211-10.865,10.844-10.865,19.756c0,11.81,7.873,21.383,17.582,21.383h279.311c9.711,0,17.582-9.573,17.582-21.383
		c0-8.912-4.486-16.545-10.861-19.756h20.578c9.709,0,17.582-9.572,17.582-21.382C406.228,297.536,398.355,287.963,388.646,287.963z
		"/>
</g>
<path style="fill:#C0C2C4;" d="M42.228,315.832c0,2.424,17.244,4.388,38.515,4.388c21.271,0,38.516-1.964,38.516-4.388
	c0-2.422-17.244-4.387-38.516-4.387C59.472,311.445,42.228,313.41,42.228,315.832z"/>
<path style="fill:#C0C2C4;" d="M239.542,341.707c0,2.424,37.314,4.388,83.342,4.388c46.029,0,83.343-1.964,83.343-4.388
	c0-2.422-37.314-4.387-83.343-4.387C276.857,337.32,239.542,339.285,239.542,341.707z"/>
<g>
	
		<polygon style="fill:#93CED4;stroke:#000000;stroke-width:3.6122;stroke-linecap:round;stroke-linejoin:round;stroke-miterlimit:10;" points="
		215.436,115.122 152.333,115.122 136.68,75.388 220.035,75.388 	"/>
	
		<polyline style="fill:none;stroke:#000000;stroke-width:3.6122;stroke-linecap:round;stroke-linejoin:round;stroke-miterlimit:10;" points="
		154.741,132.782 213.339,132.782 220.68,70.964 229.996,68.164 	"/>
	
		<path style="fill:#93CED4;stroke:#000000;stroke-width:2.9402;stroke-linecap:round;stroke-linejoin:round;stroke-miterlimit:10;" d="
		M168.789,139.805c0,3.879-3.144,7.023-7.023,7.023c-3.88,0-7.024-3.144-7.024-7.023c0-3.879,3.145-7.023,7.024-7.023
		C165.645,132.782,168.789,135.926,168.789,139.805z"/>
	<path d="M164.574,139.805c0,1.551-1.257,2.809-2.809,2.809c-1.553,0-2.809-1.258-2.809-2.809c0-1.551,1.257-2.809,2.809-2.809
		C163.317,136.996,164.574,138.254,164.574,139.805z"/>
	
		<circle style="fill:#93CED4;stroke:#000000;stroke-width:2.9402;stroke-linecap:round;stroke-linejoin:round;stroke-miterlimit:10;" cx="205.111" cy="139.805" r="7.023"/>
	<circle cx="205.111" cy="139.805" r="2.809"/>
	<path d="M233.406,69.769c0,1.884-1.527,3.412-3.411,3.412c-1.884,0-3.412-1.528-3.412-3.412c0-1.884,1.527-3.411,3.412-3.411
		C231.879,66.358,233.406,67.885,233.406,69.769z"/>
	
		<line style="fill:none;stroke:#000000;stroke-width:3.6122;stroke-linecap:round;stroke-linejoin:round;stroke-miterlimit:10;" x1="217.796" y1="95.256" x2="144.506" y2="95.256"/>
	
		<line style="fill:none;stroke:#000000;stroke-width:3.6122;stroke-linecap:round;stroke-linejoin:round;stroke-miterlimit:10;" x1="181.151" y1="75.388" x2="181.151" y2="113.918"/>
	
		<line style="fill:none;stroke:#000000;stroke-width:3.6122;stroke-linecap:round;stroke-linejoin:round;stroke-miterlimit:10;" x1="153.136" y1="75.388" x2="165.979" y2="113.918"/>
	
		<line style="fill:none;stroke:#000000;stroke-width:3.6122;stroke-linecap:round;stroke-linejoin:round;stroke-miterlimit:10;" x1="201.298" y1="75.388" x2="198.088" y2="113.918"/>
	
		<line style="fill:none;stroke:#000000;stroke-width:3.6122;stroke-linecap:round;stroke-linejoin:round;stroke-miterlimit:10;" x1="219.129" y1="83.214" x2="139.892" y2="83.214"/>
	
		<line style="fill:none;stroke:#000000;stroke-width:3.6122;stroke-linecap:round;stroke-linejoin:round;stroke-miterlimit:10;" x1="216.458" y1="106.292" x2="148.922" y2="106.292"/>
</g>
<g>
	<path style="fill:#2599A3;" d="M136.055,261.27c0,30.135-24.429,54.563-54.563,54.563c-30.134,0-54.563-24.428-54.563-54.563
		c0-30.134,24.429-54.562,54.563-54.562C111.625,206.708,136.055,231.136,136.055,261.27z"/>
	<g>
		<path style="fill:#A7C3D2;" d="M97.69,211.404c6.119,3.67,8.255,10.506,8.872,17.458c0.189,2.125,2.669,2.797,3.905,1.057
			c2.367-3.33,6.874,2.534,8.352,4.06c1.107,1.04,2.053,2.217,2.837,3.531l-1.833,4.938c-0.804-1.031-1.469-2.145-1.999-3.336
			c-1.198-2.397-2.924-7.581-6.581-7.224c-3.973,0.387-7.753,2.329-10.983,4.595c-0.845,0.591-2.003,1.505-2.294,2.563
			c-0.644,2.338,4.236,9.975-2.797,9.796c-1.549-0.039-2.172,1.595-1.622,2.826c2.198,4.91,8.814,7.162,8.687,13.004
			c-0.024,1.119,1.156,2.06,2.242,1.709c1.254-0.405,2.136-0.765,3.349-1.295c1.326-0.676,2.69-1.264,4.094-1.758
			c2.036-0.002,3.069,0.834,3.098,2.504c-1.638,1.05-2.518,1.596-2.959,3.612c-0.762,3.482-2.285,6.573-2.755,10.202
			c-0.944,7.279-0.885,13.26-6.235,18.969c-0.914,0.977-0.013,2.541,1.292,2.22c2.951-0.725,5.462-2.878,8.483-3.271
			c0.558-0.073,1.067-0.333,1.218-0.927c0.526-2.07,4.345-9.543,7.325-9.293c-0.158,2.359,3.547,3.221,4.235,0.691
			c2.263-8.292,6.439-15.861,9.155-23.976c0.045-0.923,0.069-1.855,0.069-2.79c0-24.443-16.081-45.118-38.236-52.059
			C96.203,209.083,95.643,210.646,97.69,211.404z"/>
		<path style="fill:#A7C3D2;" d="M44.944,227.205c0.48-0.341,0.964-0.641,1.456-0.926c-0.878,2.992-2.222,5.755-1.578,8.995
			c0.651,3.277,4.345,6.719,6.35,9.305c1.226,1.583,2.542,3.054,4.039,4.378c2.256,1.994,0.072,2-1.919,4.066
			c-1.561,1.616-3.248,4.411-1.717,6.673c2.103,3.102,1.164,6.034,2.091,9.403c1.096,3.982,7.667,9.466,2.161,13.689
			c-2.487,1.906-0.243,5.048-0.414,7.481c-0.24,3.426,0.516,6.917,1.781,10.136c-0.072,0.904-0.092,1.828-0.056,2.768
			c0.102,2.518,3.989,2.538,3.925,0c-0.244-9.652,5.88-14.765,12.194-21.074c4.688-4.688,10.814-7.002,15.448-11.507
			c2.327-2.264,1.994-5.838-0.077-8.08c-1.246-1.351-3.41-2.073-5.023-2.839c-1.07-0.506-2.113-1.042-3.146-1.623
			c-2.23-1.255,0.307-1.235,1.62-1.797c1.723-0.739,1.282-3.753-0.53-4.053c-5.812-0.963-9.515-5.634-14.974-7.34
			c-2.151-0.672-4.203-0.955-6.441-1.135c-4.115-0.332-4.426-2.235-4.355-6.131c0.032-1.811-1.918-2.686-3.4-1.951
			c-0.176,0.088-0.351,0.175-0.527,0.262c-2.557-8.195,10.764-9.497,10.952-3.428c0.081,2.606,3.926,3.241,4.603,0.623
			c1.042-4.022,4.792-9.968,10.146-6.678c1.34,0.824,3.312-0.229,3.227-1.852c-0.083-1.565,0.019-3.058,0.149-4.569
			c0.765,0.136,1.529,0.274,2.292,0.446c1.919,0.436,3.382-1.869,1.94-3.334c-1.66-1.688-8.277-3.679-10.895-5.591
			c5.767-0.951,10.579-0.141,16.435-0.753c1.135-0.119,1.84-1.724,1.774-2.605c-3.551-0.727-6.357-0.166-10.124-0.166
			c-14.031,0-26.822,5.301-36.489,14.003c-0.888,0.952-1.773,1.934-2.659,2.949C42.19,226.11,43.542,228.202,44.944,227.205z"/>
		<path style="fill:#FFFFFF;" d="M44.084,225.915c0.479-0.341,0.963-0.641,1.454-0.928c-0.878,2.994-2.221,5.758-1.577,8.996
			c0.651,3.278,4.346,6.719,6.35,9.305c1.225,1.583,2.542,3.055,4.04,4.378c2.256,1.995,0.071,1.999-1.919,4.064
			c-1.562,1.62-3.248,4.414-1.716,6.675c2.102,3.103,1.164,6.035,2.091,9.403c1.095,3.983,7.667,9.465,2.161,13.688
			c-2.487,1.906-0.243,5.049-0.413,7.484c-0.241,3.423,0.515,6.915,1.78,10.136c-0.071,0.903-0.092,1.825-0.055,2.767
			c0.101,2.518,3.988,2.535,3.924,0c-0.245-9.652,5.88-14.766,12.194-21.074c4.688-4.688,10.815-7.003,15.448-11.509
			c2.328-2.263,1.994-5.836-0.077-8.08c-1.247-1.35-3.411-2.071-5.023-2.836c-1.071-0.506-2.113-1.043-3.146-1.624
			c-2.23-1.255,0.306-1.236,1.62-1.797c1.723-0.739,1.283-3.753-0.529-4.054c-5.812-0.962-9.516-5.633-14.974-7.34
			c-2.152-0.672-4.203-0.954-6.441-1.135c-4.116-0.331-4.426-2.234-4.356-6.131c0.033-1.811-1.917-2.685-3.399-1.951
			c-0.175,0.088-0.351,0.176-0.527,0.262c-2.558-8.195,10.764-9.496,10.952-3.427c0.08,2.606,3.925,3.24,4.603,0.623
			c1.043-4.024,4.793-9.967,10.146-6.678c1.341,0.823,3.313-0.229,3.227-1.853c-0.083-1.566,0.019-3.058,0.149-4.569
			c0.764,0.136,1.529,0.274,2.293,0.446c1.918,0.436,3.381-1.868,1.939-3.334c-1.66-1.688-8.279-3.679-10.896-5.592
			c5.769-0.95,11.539,0.055,17.394-0.557c1.135-0.118,1.753-0.977,1.687-1.858c-3.551-0.727-7.228-1.108-10.994-1.108
			c-14.031,0-26.822,5.301-36.488,14.003c-0.89,0.951-1.774,1.936-2.659,2.949C41.329,224.819,42.681,226.912,44.084,225.915z"/>
		<path style="fill:#FFFFFF;" d="M97.622,210.713c7.104,3.451,9.492,10.734,10.15,18.148c0.189,2.125,2.668,2.797,3.904,1.057
			c2.368-3.33,6.875,2.534,8.353,4.06c1.107,1.04,2.053,2.217,2.836,3.531l-1.833,4.938c-0.804-1.031-1.468-2.145-1.999-3.336
			c-1.198-2.397-2.924-7.581-6.58-7.224c-3.973,0.387-7.754,2.329-10.983,4.595c-0.845,0.591-2.002,1.505-2.293,2.563
			c-0.643,2.338,4.236,9.975-2.797,9.796c-1.549-0.039-2.173,1.595-1.622,2.826c2.199,4.91,8.814,7.162,8.686,13.004
			c-0.024,1.119,1.156,2.06,2.243,1.709c1.255-0.405,2.136-0.765,3.349-1.295c1.325-0.676,2.69-1.264,4.094-1.758
			c2.036-0.002,3.069,0.834,3.098,2.504c-1.639,1.05-2.518,1.596-2.961,3.612c-0.762,3.482-2.285,6.573-2.754,10.202
			c-0.944,7.279-0.885,13.26-6.235,18.969c-0.914,0.977-0.013,2.541,1.292,2.22c2.951-0.725,5.462-2.878,8.483-3.271
			c0.559-0.073,1.067-0.333,1.218-0.927c0.525-2.07,4.345-9.543,7.325-9.293c-0.158,2.359,3.546,3.221,4.236,0.691
			c2.262-8.292,6.438-15.861,9.153-23.976c0.045-0.923,0.07-1.855,0.07-2.79c0-24.891-16.676-45.875-39.462-52.429
			C96.562,209.596,96.869,210.35,97.622,210.713z"/>
	</g>
</g>
<g>
	<path style="fill:#C0C2C4;" d="M81.492,323.092c0,2.514,53.593,4.553,119.706,4.553c66.112,0,119.705-2.039,119.705-4.553
		s-53.593-4.551-119.705-4.551C135.085,318.541,81.492,320.578,81.492,323.092z"/>
	<g>
		<path style="fill:#BCBEC0;" d="M307.036,318.355c0,4.546-1.241,4.736-5.68,4.736H100.993c-4.438,0-6.116-0.19-6.116-4.736V170.193
			c0-4.542,1.678-7.1,6.116-7.1h200.363c4.439,0,5.68,2.558,5.68,7.1V318.355z"/>
		<path style="fill:#CBCCCE;" d="M302.895,315.417c0,4.37-1.192,4.553-5.459,4.553H104.895c-4.264,0-5.877-0.183-5.877-4.553
			V173.039c0-4.365,1.613-6.822,5.877-6.822h192.541c4.267,0,5.459,2.458,5.459,6.822V315.417z"/>
		<rect x="105.136" y="174.005" style="fill:#6D6E71;" width="187.814" height="138.178"/>
		<rect x="107.627" y="176.163" style="fill:#249DC3;" width="183.032" height="133.858"/>
		<path style="fill:#56B9D6;" d="M214.623,259.939c-53.044,36.425-106.996,50.083-106.996,50.083V176.163h183.032
			C290.659,176.163,267.667,223.515,214.623,259.939z"/>
		<path style="fill:#9D9FA2;" d="M305.023,251.141c0,2.872-2.326,5.2-5.198,5.2l0,0c-2.871,0-5.199-2.328-5.199-5.2v-16.097
			c0-2.87,2.328-5.199,5.199-5.199l0,0c2.872,0,5.198,2.329,5.198,5.199V251.141z"/>
		<path style="fill:#C7C8CA;" d="M303.011,248.696c0,2-1.425,3.619-3.185,3.619l0,0c-1.76,0-3.186-1.619-3.186-3.619v-11.207
			c0-1.999,1.426-3.619,3.186-3.619l0,0c1.76,0,3.185,1.62,3.185,3.619V248.696z"/>
		<path style="fill:#9D9FA2;" d="M101.447,257.681c0,0.904-0.732,1.635-1.635,1.635l0,0c-0.902,0-1.635-0.73-1.635-1.635v-29.177
			c0-0.904,0.733-1.637,1.635-1.637l0,0c0.903,0,1.635,0.732,1.635,1.637V257.681z"/>
	</g>
	<g>
		<rect x="140.339" y="211.541" style="fill:#BD6B3C;" width="111.588" height="67.807"/>
		<path style="fill:#F9A45A;" d="M185.581,174.745c-9.272,7.543-45.242,36.796-45.242,36.796h111.588
			c0,0-38.064-29.733-46.827-36.796C196.338,167.681,194.853,167.203,185.581,174.745z"/>
		<g>
			<polygon style="fill:#FFFFFF;" points="237.336,265.836 156.532,265.836 156.532,160.124 219.01,160.124 237.336,181.804 			"/>
			<polygon style="fill:#56B9D6;" points="237.336,181.804 219.01,181.804 219.01,160.124 			"/>
		</g>
		<polygon style="fill:#E7944E;" points="251.927,279.348 140.339,279.348 140.339,211.541 196.134,250.783 251.927,211.541 		"/>
		<path style="fill:#D7C2BF;" d="M207.38,242.871l-6.499,5.11l-13.38-3.271l-2.856-1.839c-10.529,8.668-44.306,36.477-44.306,36.477
			h111.588C251.927,279.348,217.636,251.18,207.38,242.871z"/>
		<path style="fill:#F9A45A;" d="M185.581,246.092c-9.272,6.815-45.242,33.256-45.242,33.256h111.588
			c0,0-38.064-26.873-46.827-33.256C196.338,239.709,194.853,239.275,185.581,246.092z"/>
	</g>
</g>
<g>
	<rect x="308.219" y="279.871" style="fill:#F9A374;" width="24.216" height="14.404"/>
	<path style="fill:#D1D3D4;" d="M323.551,292.349c-5.075-1.62-9.322-4.8-9.965-10.381c-0.091-0.766,0-1.455,0.201-2.097h-5.567
		v14.404h24.216v-1.808C329.467,293.213,326.355,293.237,323.551,292.349z"/>
	<path style="fill:#FAB58F;" d="M393.027,341.708c-0.377-15.126-3.864-27.135-16.686-31.743
		c-14.672-5.273-43.244-16.289-43.244-16.289h-24.389c0,0-28.576,11.016-43.242,16.289c-12.826,4.608-16.311,16.617-16.688,31.743
		H393.027z"/>
	<path style="fill:#FFFFFF;" d="M393.027,341.708c-0.377-15.126-3.864-27.135-16.686-31.743
		c-14.672-5.273-43.244-16.289-43.244-16.289h-24.389c0,0-28.576,11.016-43.242,16.289c-12.826,4.608-16.311,16.617-16.688,31.743
		H393.027z"/>
	<g>
		<path style="fill:#00B8B4;" d="M315.831,312.594c0,0,0.097-0.169,0.355-0.4C316.067,312.322,315.95,312.448,315.831,312.594
			l-0.751,29.114h12.03l-1.125-29.114l2.357-10.795c0.867-1.616,1.127-3.488,0.231-5.117c-0.813-1.477-1.93-2.244-3.191-2.629
			c-2.001-0.604-4.379-0.247-6.515-0.247c-2.119,0-3.633,0.211-5.031,2.046c-1.403,1.845-1.499,3.833-0.359,5.947L315.831,312.594z"
			/>
		<path style="fill:#BCBEC0;" d="M315.433,310.916c0,0,7.105-3.651,10.522,1.678c0,0-4.784-3.004-10.152,0L315.433,310.916z"/>
	</g>
	<path style="fill:#002D41;" d="M393.027,341.708c-0.377-15.126-3.864-27.135-16.686-31.743
		c-14.672-5.273-31.887-11.938-31.887-11.938l-9.271,43.681H393.027z"/>
	<path style="fill:#002D41;" d="M307.337,341.708l-9.718-43.776c0,0-17.487,6.76-32.152,12.033
		c-12.826,4.608-16.311,16.617-16.688,31.743H307.337z"/>
	<g>
		<polygon style="fill:#BCBEC0;" points="320.903,293.676 309.262,322.097 297.619,297.932 		"/>
		<path style="fill:#FFFFFF;" d="M308.219,291.573c0,0-2.07,1.646-10.6,6.358l11.16,19.132c0,0,6.654-15.537,12.124-23.388
			L308.219,291.573z"/>
	</g>
	<g>
		<polygon style="fill:#BCBEC0;" points="320.795,293.676 332.435,322.097 344.073,297.932 		"/>
		<path style="fill:#FFFFFF;" d="M333.476,291.573c0,0,2.071,1.646,10.597,6.358l-11.16,19.132c0,0-6.654-15.537-12.118-23.388
			L333.476,291.573z"/>
	</g>
	<path style="fill:#003950;" d="M287.753,329.176c0,0,9.866,0.799,6.781,4.02l-13.704,4.766l2.25,3.746h24.257l-9.718-43.776
		l-20.451,7.742l1.001,16.423C278.17,322.097,277.904,331.123,287.753,329.176z"/>
	<path style="fill:#003950;" d="M358.869,341.708l2.179-3.746l-13.7-4.766c-3.09-3.222,6.781-4.02,6.781-4.02
		c9.849,1.947,9.586-7.079,9.586-7.079l0.999-16.423l-20.456-7.742l-9.202,43.776H358.869z"/>
	<g>
		<g>
			<path style="fill:#F9A374;" d="M354.096,233.87c-0.504,7.684,3.017,14.167,7.846,14.468c4.829,0.314,9.148-5.655,9.64-13.341
				c0.491-7.678-3.021-14.159-7.857-14.468C358.899,220.217,354.583,226.19,354.096,233.87z"/>
			<g>
				<path style="fill:#C8825F;" d="M360.935,231.127c0,0,0.014-0.427,0.106-1.133c0.089-0.712,0.331-1.724,0.779-2.818
					c0.457-1.059,1.261-2.301,2.456-2.47c0.292-0.043,0.606-0.023,0.926,0.023c0.055,0.024,0.383,0.096,0.484,0.151
					c0.113,0.074,0.229,0.098,0.369,0.203c0.541,0.334,1.012,0.889,1.36,1.543c0.371,0.64,0.649,1.367,0.842,2.093
					c0.178,0.732,0.337,1.498,0.32,2.164c-0.045,0.768,0.015,1.55-0.066,2.223c-0.069,0.686-0.137,1.333-0.197,1.93
					c-0.114,0.607-0.19,1.169-0.255,1.665c-0.063,0.504-0.192,0.926-0.258,1.281c-0.149,0.71-0.218,1.132-0.218,1.132
					s0.199-0.369,0.508-1.033c0.139-0.34,0.36-0.735,0.529-1.22c0.176-0.481,0.376-1.028,0.576-1.631
					c0.182-0.611,0.32-1.305,0.48-2.031c0.166-0.731,0.192-1.462,0.276-2.244c0.068-0.891-0.022-1.737-0.229-2.596
					c-0.203-0.848-0.501-1.699-0.95-2.504c-0.451-0.79-1.084-1.554-1.943-2.071c-0.194-0.128-0.473-0.233-0.729-0.333
					c-0.271-0.089-0.345-0.089-0.676-0.157c-0.48-0.046-0.96-0.04-1.437,0.068c-0.963,0.214-1.698,0.877-2.144,1.537
					c-0.461,0.663-0.702,1.36-0.87,1.992c-0.318,1.276-0.277,2.361-0.231,3.093C360.81,230.73,360.935,231.127,360.935,231.127z"/>
			</g>
			<path style="fill:#C8825F;" d="M360.935,231.127c0,0-0.545-0.765,2.547-1.229c0,0,3.55,0.221,2.006,4.153
				c-0.333,0.845-0.6,1.716-0.706,2.621c-0.143,1.286,0.643,2.948-0.043,4.141c-0.887,1.542-3.739,0.958-4.122-0.682
				c-0.296-1.251,1.022-3.563,1.643-4.526C362.26,235.605,364.127,232.667,360.935,231.127z"/>
			<g>
				<path style="fill:#C8825F;" d="M360.596,239.969c0.006,0.007-0.099,0.065-0.214,0.226c-0.13,0.16-0.266,0.413-0.361,0.742
					c-0.072,0.168-0.075,0.348-0.096,0.552c-0.011,0.203-0.041,0.42,0.028,0.628c0.052,0.215,0.086,0.448,0.163,0.666
					c0.085,0.213,0.223,0.404,0.341,0.607c0.141,0.187,0.253,0.407,0.428,0.544c0.161,0.153,0.355,0.271,0.518,0.398
					c0.335,0.268,0.697,0.407,1.027,0.462c0.641,0.16,1.091,0.119,1.091,0.119s-0.238-0.436-0.607-0.87
					c-0.092-0.115-0.191-0.23-0.31-0.334c-0.093-0.128-0.17-0.277-0.275-0.398c-0.103-0.123-0.189-0.264-0.314-0.376
					c-0.123-0.11-0.164-0.27-0.255-0.398c-0.216-0.247-0.336-0.527-0.489-0.796c-0.081-0.13-0.132-0.268-0.189-0.4
					c-0.042-0.14-0.137-0.272-0.172-0.402C360.717,240.429,360.596,239.969,360.596,239.969z"/>
			</g>
		</g>
		<path style="fill:#F9A374;" d="M273.129,206.624c0,0-5.522,57.73,22.744,75.901c0,0,14.116,13.88,31.082,1.722
			c0,0,25.161-13.577,29.312-23.931c0,0,21.726-93.735-31.023-96.764C325.243,163.553,280.193,153.126,273.129,206.624z"/>
		<path style="fill:#E6E7E8;" d="M325.243,163.553c0,0-3.578-0.827-8.878-0.82c9.356,3.635,16.512,11.4,21.291,20.86
			c6.768,13.406,11.429,29.882,12.208,44.92c1.032,19.954-9.211,40.311-27.162,49.971c-7.484,4.026-16.842,7.818-25.44,5.226
			c3.96,3.075,15.881,10.434,29.692,0.538c0,0,25.161-13.577,29.312-23.931C356.267,260.316,377.992,166.582,325.243,163.553z"/>
		<g>
			<g>
				<path style="fill:#2E2E2F;" d="M326.489,220.789c0,2.512,2.037,4.547,4.549,4.547c2.512,0,4.548-2.035,4.548-4.547
					c0-2.511-2.036-4.551-4.548-4.551C328.526,216.238,326.489,218.278,326.489,220.789z"/>
				<path style="fill:#FFFFFF;" d="M330.771,217.877c-0.363,0.51,0.164,1.518,1.184,2.253c1.02,0.73,2.142,0.914,2.509,0.404
					c0.369-0.51-0.162-1.519-1.178-2.253C332.262,217.547,331.142,217.369,330.771,217.877z"/>
			</g>
			<path style="fill:#794412;" d="M322.374,205.556c0,0-1.982,0.66-2.19,2.887c0,0,0.089,2.648,2.295,2.419
				c0,0,16.289-2.104,22.574,1.942C345.054,212.804,344.295,200.858,322.374,205.556z"/>
		</g>
		<g>
			<g>
				<path style="fill:#2E2E2F;" d="M299.129,220.789c0,2.512-2.032,4.547-4.543,4.547c-2.515,0-4.551-2.035-4.551-4.547
					c0-2.511,2.036-4.551,4.551-4.551C297.098,216.238,299.129,218.278,299.129,220.789z"/>
				<path style="fill:#FFFFFF;" d="M294.848,217.877c0.369,0.51-0.163,1.518-1.184,2.253c-1.015,0.73-2.14,0.914-2.51,0.404
					c-0.365-0.51,0.164-1.519,1.184-2.253C293.359,217.547,294.482,217.369,294.848,217.877z"/>
			</g>
			<path style="fill:#794412;" d="M303.245,205.556c0,0,1.984,0.66,2.192,2.887c0,0-0.089,2.648-2.293,2.419
				c0,0-16.29-2.104-22.578,1.942C280.565,212.804,281.327,200.858,303.245,205.556z"/>
		</g>
		<g>
			<g>
				<path style="fill:#D78E65;" d="M309.468,231.191c0,0-0.136,0.488-0.408,1.291c-0.126,0.409-0.309,0.885-0.493,1.442
					c-0.197,0.546-0.418,1.161-0.66,1.833c-0.247,0.66-0.515,1.375-0.798,2.132c-0.292,0.748-0.568,1.546-0.896,2.35
					c-0.148,0.407-0.298,0.821-0.45,1.24l-0.243,0.626l-0.061,0.157l-0.03,0.079l-0.016,0.039c0.071-0.217,0.018-0.054,0.033-0.1
					l-0.003,0.011l-0.005,0.019l-0.062,0.263c-0.188,0.786-0.27,1.638-0.276,2.442c0.009,0.806,0.12,1.578,0.374,2.23
					c0.244,0.663,0.65,1.184,1.172,1.615c0.527,0.424,1.198,0.725,1.894,0.921c0.691,0.226,1.416,0.317,2.091,0.384
					c0.681,0.062,1.321,0.089,1.894,0.087c0.579-0.008,1.083-0.015,1.499-0.02c0.836-0.041,1.33-0.045,1.33-0.045
					s-0.435,0.214-1.221,0.556c-0.399,0.145-0.886,0.338-1.46,0.513c-0.578,0.162-1.239,0.335-1.988,0.456
					c-0.752,0.092-1.585,0.172-2.506,0.089c-0.91-0.085-1.926-0.311-2.892-0.878c-0.963-0.552-1.837-1.465-2.344-2.524
					c-0.529-1.059-0.752-2.199-0.807-3.295c-0.051-1.102,0.063-2.159,0.29-3.203l0.107-0.419l0.049-0.155l0.018-0.041l0.034-0.084
					l0.069-0.166l0.274-0.661c0.19-0.435,0.379-0.863,0.564-1.285c0.424-0.816,0.829-1.607,1.267-2.326
					c0.454-0.711,0.868-1.387,1.32-1.97c0.453-0.581,0.845-1.123,1.255-1.566c0.395-0.449,0.747-0.834,1.064-1.131
					C309.059,231.486,309.468,231.191,309.468,231.191z"/>
			</g>
		</g>
		<g>
			<path style="fill:#CD8861;" d="M297.673,258.803c0,0,1.92-0.253,4.8-0.433c1.44-0.098,3.12-0.179,4.92-0.232
				c1.8-0.064,3.72-0.075,5.64-0.092c0.96,0.009,1.92,0.018,2.865,0.026c0.945,0,1.876,0.045,2.775,0.064
				c1.8,0.053,3.48,0.135,4.92,0.232c2.88,0.18,4.8,0.435,4.8,0.435s-1.92,0.255-4.8,0.435c-1.44,0.098-3.12,0.18-4.92,0.232
				c-0.9,0.019-1.83,0.064-2.775,0.064c-0.945,0.009-1.905,0.018-2.865,0.026c-1.92-0.017-3.84-0.028-5.64-0.092
				c-1.8-0.054-3.48-0.135-4.92-0.232C299.593,259.056,297.673,258.803,297.673,258.803z"/>
		</g>
		<path style="fill:#D27933;" d="M354.046,154.523c0,0,13.103,2.577,13.906,24.03c0.924,24.64-2.075,42.268-2.075,42.268
			c-4.157-0.632-5.165,0-5.165,0l-1.085,18.293h-2.713v-19.909c-0.254-12.85-9.589-12.892-9.589-12.892
			c5.496-10.806,0.071-21.374,0.071-21.374c-3.893-9.464-54.393-6.436-54.393-6.436c-19.298,0.38-14.324,23.519-14.324,23.519
			s-5.063-0.122-5.545,5.257c-0.397,4.44-0.74,9.057-0.419,13.509c0,0-11.622-38.506,1.541-58.057c0,0,13.969-18.182-0.738-24.744
			c0,0,14.707-6.56,21.448,7.572c0,0,14.023-5.304,5.122-19.939c0,0,26.403-0.753,25.605,18.93c0,0,12.021-4.994,5.368-20.135
			C331.059,124.416,360.574,132.945,354.046,154.523z"/>
		<path style="fill:#D27933;" d="M349.565,258.803c6.868-6.835,7.349-19.688,7.349-19.688h2.713
			c-0.354,5.944-3.36,21.202-3.36,21.202c-4.151,10.353-29.312,23.931-29.312,23.931c-16.965,12.158-31.082-1.722-31.082-1.722
			c-15.079-9.695-20.542-30.652-22.357-48.092c3.714,15.994,10.308,28.815,10.308,28.815s11.074,16.574,27.855,16.065
			C311.679,279.314,335.607,272.692,349.565,258.803z"/>
		<g>
			<g>
				<path style="fill:#FFFFFF;" d="M299.772,258.803h25.356c0,0-0.455,9.371-12.677,10.347
					C312.452,269.149,301.278,269.78,299.772,258.803z"/>
				<g>
					<g>
						<path style="fill:#CD8861;" d="M300.086,260.386c0,0,0.09,0.522,0.421,1.362c0.332,0.834,0.91,1.996,1.924,3.1
							c1.008,1.104,2.455,2.101,4.207,2.706c0.872,0.313,1.817,0.508,2.786,0.658c0.485,0.075,0.98,0.126,1.479,0.156l0.766,0.041
							c0.227,0.011,0.483,0.007,0.728,0.005c1.992-0.021,3.992-0.395,5.734-1.04c1.749-0.645,3.218-1.626,4.27-2.699
							c0.524-0.536,0.969-1.075,1.31-1.593c0.35-0.512,0.623-0.988,0.821-1.393c0.208-0.402,0.354-0.729,0.447-0.956
							c0.098-0.227,0.149-0.347,0.149-0.347s-0.025,0.129-0.071,0.37c-0.047,0.241-0.105,0.602-0.247,1.043
							c-0.127,0.444-0.308,0.984-0.6,1.569c-0.275,0.593-0.655,1.237-1.161,1.876c-0.985,1.299-2.532,2.545-4.415,3.359
							c-0.94,0.402-1.946,0.75-2.996,0.955c-1.049,0.216-2.128,0.34-3.219,0.367c-0.276,0.006-0.542,0-0.835-0.016l-0.792-0.057
							c-0.536-0.042-1.071-0.105-1.599-0.196c-1.057-0.165-2.081-0.468-3.036-0.856c-1.916-0.774-3.467-2.065-4.407-3.405
							c-0.968-1.334-1.36-2.658-1.536-3.564C300.046,260.915,300.086,260.386,300.086,260.386z"/>
					</g>
				</g>
				<g>
					<g>
						<path style="fill:#D1D3D4;" d="M303.327,263.248c0,0,1.141-0.121,2.852-0.212c0.855-0.033,1.854-0.097,2.922-0.12
							c1.069-0.032,2.21-0.038,3.351-0.046c1.141,0.008,2.281,0.013,3.35,0.045c1.069,0.022,2.067,0.087,2.922,0.12
							c1.711,0.091,2.852,0.213,2.852,0.213s-1.141,0.122-2.852,0.213c-0.855,0.033-1.853,0.098-2.922,0.12
							c-1.069,0.032-2.21,0.037-3.35,0.045c-1.141-0.008-2.281-0.014-3.351-0.046c-1.069-0.023-2.067-0.087-2.922-0.12
							C304.468,263.369,303.327,263.248,303.327,263.248z"/>
					</g>
					<g>
						<path style="fill:#D1D3D4;" d="M308.618,260.386c0,0,0.117,0.397,0.216,0.995c0.096,0.597,0.159,1.393,0.162,2.188
							c-0.002,0.796-0.065,1.592-0.161,2.188c-0.1,0.598-0.217,0.995-0.217,0.995s-0.118-0.398-0.217-0.995
							c-0.096-0.597-0.159-1.393-0.161-2.188c0.003-0.795,0.066-1.591,0.162-2.188C308.501,260.783,308.618,260.386,308.618,260.386
							z"/>
					</g>
					<g>
						<path style="fill:#D1D3D4;" d="M314.767,260.386c0,0,0.117,0.397,0.216,0.995c0.096,0.597,0.159,1.393,0.162,2.188
							c-0.002,0.796-0.065,1.592-0.161,2.188c-0.1,0.598-0.217,0.995-0.217,0.995s-0.118-0.398-0.217-0.995
							c-0.096-0.597-0.159-1.393-0.161-2.188c0.003-0.795,0.066-1.591,0.162-2.188C314.65,260.783,314.767,260.386,314.767,260.386z
							"/>
					</g>
				</g>
			</g>
		</g>
	</g>
</g>
</svg>
