<svg xmlns="http://www.w3.org/2000/svg" version="1.1" xmlns:xlink="http://www.w3.org/1999/xlink" xmlns:svgjs="http://svgjs.dev/svgjs" width="1440" height="560" preserveAspectRatio="none" viewBox="0 0 1440 560"><g mask="url(&quot;#SvgjsMask1000&quot;)" fill="none"><rect width="1440" height="560" x="0" y="0" fill="#0e2a47"></rect><path d="M-47.98 357.79L-47.98 357.79" stroke="#132e65" stroke-width="1.5"></path><path d="M-47.98 357.79L50.17 399.85" stroke="#132e65" stroke-width="1.5"></path><path d="M-47.98 357.79L-90.5 558.69" stroke="#132e65" stroke-width="1.5"></path><path d="M-47.98 357.79L223.83 385.55" stroke="#132e65" stroke-width="1.5"></path><path d="M-47.98 357.79L-54.84 661.11" stroke="#132e65" stroke-width="1.5"></path><path d="M-90.5 558.69L-90.5 558.69" stroke="#132e65" stroke-width="1.5"></path><path d="M-90.5 558.69L-54.84 661.11" stroke="#132e65" stroke-width="1.5"></path><path d="M-54.84 661.11L-54.84 661.11" stroke="#132e65" stroke-width="1.5"></path><path d="M-54.84 661.11L188.07 684.99" stroke="#132e65" stroke-width="1.5"></path><path d="M50.17 399.85L50.17 399.85" stroke="#132e65" stroke-width="1.5"></path><path d="M50.17 399.85L223.83 385.55" stroke="#132e65" stroke-width="1.5"></path><path d="M50.17 399.85L-90.5 558.69" stroke="#132e65" stroke-width="1.5"></path><path d="M50.17 399.85L238.49 561.24" stroke="#132e65" stroke-width="1.5"></path><path d="M223.83 385.55L223.83 385.55" stroke="#132e65" stroke-width="1.5"></path><path d="M223.83 385.55L356.54 360.72" stroke="#132e65" stroke-width="1.5"></path><path d="M223.83 385.55L238.49 561.24" stroke="#132e65" stroke-width="1.5"></path><path d="M223.83 385.55L367.44 556.32" stroke="#132e65" stroke-width="1.5"></path><path d="M223.83 385.55L188.07 684.99" stroke="#132e65" stroke-width="1.5"></path><path d="M238.49 561.24L238.49 561.24" stroke="#132e65" stroke-width="1.5"></path><path d="M238.49 561.24L367.44 556.32" stroke="#132e65" stroke-width="1.5"></path><path d="M238.49 561.24L188.07 684.99" stroke="#132e65" stroke-width="1.5"></path><path d="M238.49 561.24L367.32 676.95" stroke="#132e65" stroke-width="1.5"></path><path d="M238.49 561.24L356.54 360.72" stroke="#132e65" stroke-width="1.5"></path><path d="M188.07 684.99L188.07 684.99" stroke="#132e65" stroke-width="1.5"></path><path d="M188.07 684.99L367.32 676.95" stroke="#132e65" stroke-width="1.5"></path><path d="M188.07 684.99L367.44 556.32" stroke="#132e65" stroke-width="1.5"></path><path d="M356.54 360.72L356.54 360.72" stroke="#132e65" stroke-width="1.5"></path><path d="M356.54 360.72L367.44 556.32" stroke="#132e65" stroke-width="1.5"></path><path d="M367.44 556.32L367.44 556.32" stroke="#132e65" stroke-width="1.5"></path><path d="M367.44 556.32L367.32 676.95" stroke="#132e65" stroke-width="1.5"></path><path d="M367.32 676.95L367.32 676.95" stroke="#132e65" stroke-width="1.5"></path><path d="M367.32 676.95L540.95 679.2" stroke="#132e65" stroke-width="1.5"></path><path d="M558.49 340.05L558.49 340.05" stroke="#132e65" stroke-width="1.5"></path><path d="M558.49 340.05L642.34 251.43" stroke="#132e65" stroke-width="1.5"></path><path d="M558.49 340.05L532.42 514.99" stroke="#132e65" stroke-width="1.5"></path><path d="M558.49 340.05L356.54 360.72" stroke="#132e65" stroke-width="1.5"></path><path d="M558.49 340.05L664.15 547.26" stroke="#132e65" stroke-width="1.5"></path><path d="M558.49 340.05L811.87 256.2" stroke="#132e65" stroke-width="1.5"></path><path d="M532.42 514.99L532.42 514.99" stroke="#132e65" stroke-width="1.5"></path><path d="M532.42 514.99L664.15 547.26" stroke="#132e65" stroke-width="1.5"></path><path d="M532.42 514.99L540.95 679.2" stroke="#132e65" stroke-width="1.5"></path><path d="M540.95 679.2L540.95 679.2" stroke="#132e65" stroke-width="1.5"></path><path d="M540.95 679.2L654.02 668.87" stroke="#132e65" stroke-width="1.5"></path><path d="M642.34 251.43L642.34 251.43" stroke="#132e65" stroke-width="1.5"></path><path d="M642.34 251.43L811.87 256.2" stroke="#132e65" stroke-width="1.5"></path><path d="M642.34 251.43L849.62 349.52" stroke="#132e65" stroke-width="1.5"></path><path d="M642.34 251.43L848.16 100.22" stroke="#132e65" stroke-width="1.5"></path><path d="M664.15 547.26L664.15 547.26" stroke="#132e65" stroke-width="1.5"></path><path d="M664.15 547.26L654.02 668.87" stroke="#132e65" stroke-width="1.5"></path><path d="M664.15 547.26L540.95 679.2" stroke="#132e65" stroke-width="1.5"></path><path d="M664.15 547.26L857.58 492.83" stroke="#132e65" stroke-width="1.5"></path><path d="M654.02 668.87L654.02 668.87" stroke="#132e65" stroke-width="1.5"></path><path d="M654.02 668.87L532.42 514.99" stroke="#132e65" stroke-width="1.5"></path><path d="M654.02 668.87L851.04 647.96" stroke="#132e65" stroke-width="1.5"></path><path d="M654.02 668.87L857.58 492.83" stroke="#132e65" stroke-width="1.5"></path><path d="M654.02 668.87L367.32 676.95" stroke="#132e65" stroke-width="1.5"></path><path d="M848.16 100.22L848.16 100.22" stroke="#132e65" stroke-width="1.5"></path><path d="M848.16 100.22L959.54 70.82" stroke="#132e65" stroke-width="1.5"></path><path d="M848.16 100.22L811.87 256.2" stroke="#132e65" stroke-width="1.5"></path><path d="M848.16 100.22L942.15 -53.65" stroke="#132e65" stroke-width="1.5"></path><path d="M848.16 100.22L972.12 252.7" stroke="#132e65" stroke-width="1.5"></path><path d="M848.16 100.22L1088.96 93.35" stroke="#132e65" stroke-width="1.5"></path><path d="M811.87 256.2L811.87 256.2" stroke="#132e65" stroke-width="1.5"></path><path d="M811.87 256.2L849.62 349.52" stroke="#132e65" stroke-width="1.5"></path><path d="M811.87 256.2L972.12 252.7" stroke="#132e65" stroke-width="1.5"></path><path d="M811.87 256.2L981.86 412.05" stroke="#132e65" stroke-width="1.5"></path><path d="M849.62 349.52L849.62 349.52" stroke="#132e65" stroke-width="1.5"></path><path d="M849.62 349.52L857.58 492.83" stroke="#132e65" stroke-width="1.5"></path><path d="M849.62 349.52L981.86 412.05" stroke="#132e65" stroke-width="1.5"></path><path d="M849.62 349.52L972.12 252.7" stroke="#132e65" stroke-width="1.5"></path><path d="M849.62 349.52L938.99 532.51" stroke="#132e65" stroke-width="1.5"></path><path d="M857.58 492.83L857.58 492.83" stroke="#132e65" stroke-width="1.5"></path><path d="M857.58 492.83L938.99 532.51" stroke="#132e65" stroke-width="1.5"></path><path d="M857.58 492.83L981.86 412.05" stroke="#132e65" stroke-width="1.5"></path><path d="M857.58 492.83L851.04 647.96" stroke="#132e65" stroke-width="1.5"></path><path d="M857.58 492.83L974.07 684.19" stroke="#132e65" stroke-width="1.5"></path><path d="M851.04 647.96L851.04 647.96" stroke="#132e65" stroke-width="1.5"></path><path d="M851.04 647.96L974.07 684.19" stroke="#132e65" stroke-width="1.5"></path><path d="M851.04 647.96L938.99 532.51" stroke="#132e65" stroke-width="1.5"></path><path d="M942.15 -53.65L942.15 -53.65" stroke="#132e65" stroke-width="1.5"></path><path d="M942.15 -53.65L959.54 70.82" stroke="#132e65" stroke-width="1.5"></path><path d="M942.15 -53.65L1088.96 93.35" stroke="#132e65" stroke-width="1.5"></path><path d="M942.15 -53.65L1248.14 -71.51" stroke="#132e65" stroke-width="1.5"></path><path d="M959.54 70.82L959.54 70.82" stroke="#132e65" stroke-width="1.5"></path><path d="M972.12 252.7L972.12 252.7" stroke="#132e65" stroke-width="1.5"></path><path d="M972.12 252.7L1087.76 346.86" stroke="#132e65" stroke-width="1.5"></path><path d="M972.12 252.7L981.86 412.05" stroke="#132e65" stroke-width="1.5"></path><path d="M972.12 252.7L1131.07 203.39" stroke="#132e65" stroke-width="1.5"></path><path d="M981.86 412.05L981.86 412.05" stroke="#132e65" stroke-width="1.5"></path><path d="M981.86 412.05L1087.76 346.86" stroke="#132e65" stroke-width="1.5"></path><path d="M981.86 412.05L938.99 532.51" stroke="#132e65" stroke-width="1.5"></path><path d="M938.99 532.51L938.99 532.51" stroke="#132e65" stroke-width="1.5"></path><path d="M938.99 532.51L974.07 684.19" stroke="#132e65" stroke-width="1.5"></path><path d="M974.07 684.19L974.07 684.19" stroke="#132e65" stroke-width="1.5"></path><path d="M974.07 684.19L1126.44 704.89" stroke="#132e65" stroke-width="1.5"></path><path d="M974.07 684.19L1135.89 521.84" stroke="#132e65" stroke-width="1.5"></path><path d="M974.07 684.19L981.86 412.05" stroke="#132e65" stroke-width="1.5"></path><path d="M1088.96 93.35L1088.96 93.35" stroke="#132e65" stroke-width="1.5"></path><path d="M1088.96 93.35L1131.07 203.39" stroke="#132e65" stroke-width="1.5"></path><path d="M1088.96 93.35L959.54 70.82" stroke="#132e65" stroke-width="1.5"></path><path d="M1088.96 93.35L972.12 252.7" stroke="#132e65" stroke-width="1.5"></path><path d="M1131.07 203.39L1131.07 203.39" stroke="#132e65" stroke-width="1.5"></path><path d="M1131.07 203.39L1277.93 224.97" stroke="#132e65" stroke-width="1.5"></path><path d="M1131.07 203.39L1087.76 346.86" stroke="#132e65" stroke-width="1.5"></path><path d="M1087.76 346.86L1087.76 346.86" stroke="#132e65" stroke-width="1.5"></path><path d="M1087.76 346.86L1135.89 521.84" stroke="#132e65" stroke-width="1.5"></path><path d="M1135.89 521.84L1135.89 521.84" stroke="#132e65" stroke-width="1.5"></path><path d="M1135.89 521.84L1249.84 555.89" stroke="#132e65" stroke-width="1.5"></path><path d="M1135.89 521.84L1126.44 704.89" stroke="#132e65" stroke-width="1.5"></path><path d="M1135.89 521.84L1267.72 392.54" stroke="#132e65" stroke-width="1.5"></path><path d="M1135.89 521.84L981.86 412.05" stroke="#132e65" stroke-width="1.5"></path><path d="M1126.44 704.89L1126.44 704.89" stroke="#132e65" stroke-width="1.5"></path><path d="M1126.44 704.89L1290.32 697.52" stroke="#132e65" stroke-width="1.5"></path><path d="M1126.44 704.89L1249.84 555.89" stroke="#132e65" stroke-width="1.5"></path><path d="M1126.44 704.89L938.99 532.51" stroke="#132e65" stroke-width="1.5"></path><path d="M1248.14 -71.51L1248.14 -71.51" stroke="#132e65" stroke-width="1.5"></path><path d="M1248.14 -71.51L1303.91 52.56" stroke="#132e65" stroke-width="1.5"></path><path d="M1248.14 -71.51L1421.16 44.8" stroke="#132e65" stroke-width="1.5"></path><path d="M1303.91 52.56L1303.91 52.56" stroke="#132e65" stroke-width="1.5"></path><path d="M1303.91 52.56L1421.16 44.8" stroke="#132e65" stroke-width="1.5"></path><path d="M1277.93 224.97L1277.93 224.97" stroke="#132e65" stroke-width="1.5"></path><path d="M1277.93 224.97L1267.72 392.54" stroke="#132e65" stroke-width="1.5"></path><path d="M1277.93 224.97L1303.91 52.56" stroke="#132e65" stroke-width="1.5"></path><path d="M1277.93 224.97L1453.16 232.52" stroke="#132e65" stroke-width="1.5"></path><path d="M1267.72 392.54L1267.72 392.54" stroke="#132e65" stroke-width="1.5"></path><path d="M1267.72 392.54L1395.12 375.86" stroke="#132e65" stroke-width="1.5"></path><path d="M1267.72 392.54L1249.84 555.89" stroke="#132e65" stroke-width="1.5"></path><path d="M1249.84 555.89L1249.84 555.89" stroke="#132e65" stroke-width="1.5"></path><path d="M1249.84 555.89L1290.32 697.52" stroke="#132e65" stroke-width="1.5"></path><path d="M1290.32 697.52L1290.32 697.52" stroke="#132e65" stroke-width="1.5"></path><path d="M1290.32 697.52L1390.11 665.75" stroke="#132e65" stroke-width="1.5"></path><path d="M1290.32 697.52L1135.89 521.84" stroke="#132e65" stroke-width="1.5"></path><path d="M1421.16 44.8L1421.16 44.8" stroke="#132e65" stroke-width="1.5"></path><path d="M1421.16 44.8L1453.16 232.52" stroke="#132e65" stroke-width="1.5"></path><path d="M1421.16 44.8L1608.87 99.4" stroke="#132e65" stroke-width="1.5"></path><path d="M1421.16 44.8L1277.93 224.97" stroke="#132e65" stroke-width="1.5"></path><path d="M1453.16 232.52L1453.16 232.52" stroke="#132e65" stroke-width="1.5"></path><path d="M1453.16 232.52L1556.29 339.01" stroke="#132e65" stroke-width="1.5"></path><path d="M1453.16 232.52L1395.12 375.86" stroke="#132e65" stroke-width="1.5"></path><path d="M1453.16 232.52L1608.87 99.4" stroke="#132e65" stroke-width="1.5"></path><path d="M1453.16 232.52L1303.91 52.56" stroke="#132e65" stroke-width="1.5"></path><path d="M1395.12 375.86L1395.12 375.86" stroke="#132e65" stroke-width="1.5"></path><path d="M1395.12 375.86L1556.29 339.01" stroke="#132e65" stroke-width="1.5"></path><path d="M1395.12 375.86L1277.93 224.97" stroke="#132e65" stroke-width="1.5"></path><path d="M1390.11 665.75L1390.11 665.75" stroke="#132e65" stroke-width="1.5"></path><path d="M1390.11 665.75L1249.84 555.89" stroke="#132e65" stroke-width="1.5"></path><path d="M1390.11 665.75L1555.14 542.31" stroke="#132e65" stroke-width="1.5"></path><path d="M1608.87 99.4L1608.87 99.4" stroke="#132e65" stroke-width="1.5"></path><path d="M1556.29 339.01L1556.29 339.01" stroke="#132e65" stroke-width="1.5"></path><path d="M1556.29 339.01L1555.14 542.31" stroke="#132e65" stroke-width="1.5"></path><path d="M1556.29 339.01L1608.87 99.4" stroke="#132e65" stroke-width="1.5"></path><path d="M1555.14 542.31L1555.14 542.31" stroke="#132e65" stroke-width="1.5"></path><circle r="5" cx="-47.98" cy="357.79" fill="#132e65"></circle><circle r="5" cx="-90.5" cy="558.69" fill="#132e65"></circle><circle r="5" cx="-54.84" cy="661.11" fill="#132e65"></circle><circle r="5" cx="50.17" cy="399.85" fill="#132e65"></circle><circle r="5" cx="223.83" cy="385.55" fill="#132e65"></circle><circle r="5" cx="238.49" cy="561.24" fill="#132e65"></circle><circle r="5" cx="188.07" cy="684.99" fill="#132e65"></circle><circle r="5" cx="356.54" cy="360.72" fill="#132e65"></circle><circle r="5" cx="367.44" cy="556.32" fill="#132e65"></circle><circle r="5" cx="367.32" cy="676.95" fill="#132e65"></circle><circle r="5" cx="558.49" cy="340.05" fill="#132e65"></circle><circle r="5" cx="532.42" cy="514.99" fill="#132e65"></circle><circle r="5" cx="540.95" cy="679.2" fill="#132e65"></circle><circle r="5" cx="642.34" cy="251.43" fill="#132e65"></circle><circle r="5" cx="664.15" cy="547.26" fill="#132e65"></circle><circle r="5" cx="654.02" cy="668.87" fill="#132e65"></circle><circle r="5" cx="848.16" cy="100.22" fill="#132e65"></circle><circle r="5" cx="811.87" cy="256.2" fill="#132e65"></circle><circle r="5" cx="849.62" cy="349.52" fill="#132e65"></circle><circle r="5" cx="857.58" cy="492.83" fill="#132e65"></circle><circle r="5" cx="851.04" cy="647.96" fill="#132e65"></circle><circle r="5" cx="942.15" cy="-53.65" fill="#132e65"></circle><circle r="5" cx="959.54" cy="70.82" fill="#132e65"></circle><circle r="5" cx="972.12" cy="252.7" fill="#132e65"></circle><circle r="5" cx="981.86" cy="412.05" fill="#132e65"></circle><circle r="5" cx="938.99" cy="532.51" fill="#132e65"></circle><circle r="5" cx="974.07" cy="684.19" fill="#132e65"></circle><circle r="5" cx="1088.96" cy="93.35" fill="#132e65"></circle><circle r="5" cx="1131.07" cy="203.39" fill="#132e65"></circle><circle r="5" cx="1087.76" cy="346.86" fill="#132e65"></circle><circle r="5" cx="1135.89" cy="521.84" fill="#132e65"></circle><circle r="5" cx="1126.44" cy="704.89" fill="#132e65"></circle><circle r="5" cx="1248.14" cy="-71.51" fill="#132e65"></circle><circle r="5" cx="1303.91" cy="52.56" fill="#132e65"></circle><circle r="5" cx="1277.93" cy="224.97" fill="#132e65"></circle><circle r="5" cx="1267.72" cy="392.54" fill="#132e65"></circle><circle r="5" cx="1249.84" cy="555.89" fill="#132e65"></circle><circle r="5" cx="1290.32" cy="697.52" fill="#132e65"></circle><circle r="5" cx="1421.16" cy="44.8" fill="#132e65"></circle><circle r="5" cx="1453.16" cy="232.52" fill="#132e65"></circle><circle r="5" cx="1395.12" cy="375.86" fill="#132e65"></circle><circle r="5" cx="1390.11" cy="665.75" fill="#132e65"></circle><circle r="5" cx="1608.87" cy="99.4" fill="#132e65"></circle><circle r="5" cx="1556.29" cy="339.01" fill="#132e65"></circle><circle r="5" cx="1555.14" cy="542.31" fill="#132e65"></circle><path d="M517.69 697.69L517.69 697.69" stroke="hsl(228.5, 77.2%, 51.5%)" stroke-width="1.5"></path><path d="M517.69 697.69L376.81 700.61" stroke="hsl(228.5, 77.2%, 51.5%)" stroke-width="1.5"></path><path d="M517.69 697.69L666.43 678.25" stroke="hsl(228.5, 77.2%, 51.5%)" stroke-width="1.5"></path><path d="M517.69 697.69L507.8 516.75" stroke="hsl(228.5, 77.2%, 51.5%)" stroke-width="1.5"></path><path d="M517.69 697.69L694.84 551.91" stroke="hsl(228.5, 77.2%, 51.5%)" stroke-width="1.5"></path><path d="M517.69 697.69L409.71 488.99" stroke="hsl(228.5, 77.2%, 51.5%)" stroke-width="1.5"></path><path d="M694.84 551.91L694.84 551.91" stroke="hsl(228.5, 77.2%, 51.5%)" stroke-width="1.5"></path><path d="M694.84 551.91L666.43 678.25" stroke="hsl(228.5, 77.2%, 51.5%)" stroke-width="1.5"></path><path d="M694.84 551.91L793.1 653.94" stroke="hsl(228.5, 77.2%, 51.5%)" stroke-width="1.5"></path><path d="M694.84 551.91L860.6 560.14" stroke="hsl(228.5, 77.2%, 51.5%)" stroke-width="1.5"></path><path d="M694.84 551.91L507.8 516.75" stroke="hsl(228.5, 77.2%, 51.5%)" stroke-width="1.5"></path><path d="M694.84 551.91L794.46 388.35" stroke="hsl(228.5, 77.2%, 51.5%)" stroke-width="1.5"></path><path d="M694.84 551.91L548.81 409.94" stroke="hsl(228.5, 77.2%, 51.5%)" stroke-width="1.5"></path><path d="M666.43 678.25L666.43 678.25" stroke="hsl(228.5, 77.2%, 51.5%)" stroke-width="1.5"></path><path d="M666.43 678.25L793.1 653.94" stroke="hsl(228.5, 77.2%, 51.5%)" stroke-width="1.5"></path><path d="M860.6 560.14L860.6 560.14" stroke="hsl(228.5, 77.2%, 51.5%)" stroke-width="1.5"></path><path d="M860.6 560.14L793.1 653.94" stroke="hsl(228.5, 77.2%, 51.5%)" stroke-width="1.5"></path><path d="M860.6 560.14L994.08 531.83" stroke="hsl(228.5, 77.2%, 51.5%)" stroke-width="1.5"></path><path d="M860.6 560.14L794.46 388.35" stroke="hsl(228.5, 77.2%, 51.5%)" stroke-width="1.5"></path><path d="M860.6 560.14L993.61 711.02" stroke="hsl(228.5, 77.2%, 51.5%)" stroke-width="1.5"></path><path d="M1155.5 231.64L1155.5 231.64" stroke="hsl(228.5, 77.2%, 51.5%)" stroke-width="1.5"></path><path d="M1155.5 231.64L1244.23 237.15" stroke="hsl(228.5, 77.2%, 51.5%)" stroke-width="1.5"></path><path d="M1155.5 231.64L1118.38 351.19" stroke="hsl(228.5, 77.2%, 51.5%)" stroke-width="1.5"></path><path d="M1155.5 231.64L1256.71 361.56" stroke="hsl(228.5, 77.2%, 51.5%)" stroke-width="1.5"></path><path d="M1155.5 231.64L1003.9 345.52" stroke="hsl(228.5, 77.2%, 51.5%)" stroke-width="1.5"></path><path d="M1155.5 231.64L1391.7 215.29" stroke="hsl(228.5, 77.2%, 51.5%)" stroke-width="1.5"></path><path d="M1155.5 231.64L1155.52 489.25" stroke="hsl(228.5, 77.2%, 51.5%)" stroke-width="1.5"></path><path d="M1145.81 683.21L1145.81 683.21" stroke="hsl(228.5, 77.2%, 51.5%)" stroke-width="1.5"></path><path d="M1145.81 683.21L1264.79 643" stroke="hsl(228.5, 77.2%, 51.5%)" stroke-width="1.5"></path><path d="M1145.81 683.21L993.61 711.02" stroke="hsl(228.5, 77.2%, 51.5%)" stroke-width="1.5"></path><path d="M1145.81 683.21L1155.52 489.25" stroke="hsl(228.5, 77.2%, 51.5%)" stroke-width="1.5"></path><path d="M1145.81 683.21L1295.53 542.02" stroke="hsl(228.5, 77.2%, 51.5%)" stroke-width="1.5"></path><path d="M1391.7 215.29L1391.7 215.29" stroke="hsl(228.5, 77.2%, 51.5%)" stroke-width="1.5"></path><path d="M1391.7 215.29L1244.23 237.15" stroke="hsl(228.5, 77.2%, 51.5%)" stroke-width="1.5"></path><path d="M1391.7 215.29L1450.29 368.55" stroke="hsl(228.5, 77.2%, 51.5%)" stroke-width="1.5"></path><path d="M1598.4 -83.72L1598.4 -83.72" stroke="hsl(228.5, 77.2%, 51.5%)" stroke-width="1.5"></path><path d="M1598.4 -83.72L1597.27 86.54" stroke="hsl(228.5, 77.2%, 51.5%)" stroke-width="1.5"></path><path d="M1598.4 -83.72L1435.05 45.65" stroke="hsl(228.5, 77.2%, 51.5%)" stroke-width="1.5"></path><path d="M1598.4 -83.72L1566.57 206.21" stroke="hsl(228.5, 77.2%, 51.5%)" stroke-width="1.5"></path><path d="M1598.4 -83.72L1285.26 -43.65" stroke="hsl(228.5, 77.2%, 51.5%)" stroke-width="1.5"></path><path d="M1598.4 -83.72L1391.7 215.29" stroke="hsl(228.5, 77.2%, 51.5%)" stroke-width="1.5"></path><path d="M1566.57 206.21L1566.57 206.21" stroke="hsl(228.5, 77.2%, 51.5%)" stroke-width="1.5"></path><path d="M1566.57 206.21L1597.27 86.54" stroke="hsl(228.5, 77.2%, 51.5%)" stroke-width="1.5"></path><path d="M1572.89 529.99L1572.89 529.99" stroke="hsl(228.5, 77.2%, 51.5%)" stroke-width="1.5"></path><path d="M1572.89 529.99L1460.88 489.22" stroke="hsl(228.5, 77.2%, 51.5%)" stroke-width="1.5"></path><path d="M1572.89 529.99L1538.2 360.22" stroke="hsl(228.5, 77.2%, 51.5%)" stroke-width="1.5"></path><path d="M1572.89 529.99L1584.75 707.16" stroke="hsl(228.5, 77.2%, 51.5%)" stroke-width="1.5"></path><path d="M1572.89 529.99L1450.29 368.55" stroke="hsl(228.5, 77.2%, 51.5%)" stroke-width="1.5"></path><path d="M1572.89 529.99L1417.92 705.65" stroke="hsl(228.5, 77.2%, 51.5%)" stroke-width="1.5"></path><path d="M-73.16 497.07L-73.16 497.07" stroke="hsl(228.5, 77.2%, 51.5%)" stroke-width="1.5"></path><path d="M-73.16 497.07L59.26 557.81" stroke="hsl(228.5, 77.2%, 51.5%)" stroke-width="1.5"></path><path d="M-73.16 497.07L-87.78 651.62" stroke="hsl(228.5, 77.2%, 51.5%)" stroke-width="1.5"></path><path d="M-73.16 497.07L83.4 648.51" stroke="hsl(228.5, 77.2%, 51.5%)" stroke-width="1.5"></path><path d="M-73.16 497.07L252.84 495.28" stroke="hsl(228.5, 77.2%, 51.5%)" stroke-width="1.5"></path><path d="M-73.16 497.07L244.99 638.92" stroke="hsl(228.5, 77.2%, 51.5%)" stroke-width="1.5"></path><path d="M-73.16 497.07L409.71 488.99" stroke="hsl(228.5, 77.2%, 51.5%)" stroke-width="1.5"></path><path d="M-87.78 651.62L-87.78 651.62" stroke="hsl(228.5, 77.2%, 51.5%)" stroke-width="1.5"></path><path d="M-87.78 651.62L83.4 648.51" stroke="hsl(228.5, 77.2%, 51.5%)" stroke-width="1.5"></path><path d="M-87.78 651.62L59.26 557.81" stroke="hsl(228.5, 77.2%, 51.5%)" stroke-width="1.5"></path><path d="M-87.78 651.62L244.99 638.92" stroke="hsl(228.5, 77.2%, 51.5%)" stroke-width="1.5"></path><path d="M59.26 557.81L59.26 557.81" stroke="hsl(228.5, 77.2%, 51.5%)" stroke-width="1.5"></path><path d="M59.26 557.81L83.4 648.51" stroke="hsl(228.5, 77.2%, 51.5%)" stroke-width="1.5"></path><path d="M83.4 648.51L83.4 648.51" stroke="hsl(228.5, 77.2%, 51.5%)" stroke-width="1.5"></path><path d="M252.84 495.28L252.84 495.28" stroke="hsl(228.5, 77.2%, 51.5%)" stroke-width="1.5"></path><path d="M252.84 495.28L244.99 638.92" stroke="hsl(228.5, 77.2%, 51.5%)" stroke-width="1.5"></path><path d="M252.84 495.28L409.71 488.99" stroke="hsl(228.5, 77.2%, 51.5%)" stroke-width="1.5"></path><path d="M252.84 495.28L59.26 557.81" stroke="hsl(228.5, 77.2%, 51.5%)" stroke-width="1.5"></path><path d="M244.99 638.92L244.99 638.92" stroke="hsl(228.5, 77.2%, 51.5%)" stroke-width="1.5"></path><path d="M244.99 638.92L376.81 700.61" stroke="hsl(228.5, 77.2%, 51.5%)" stroke-width="1.5"></path><path d="M409.71 488.99L409.71 488.99" stroke="hsl(228.5, 77.2%, 51.5%)" stroke-width="1.5"></path><path d="M409.71 488.99L507.8 516.75" stroke="hsl(228.5, 77.2%, 51.5%)" stroke-width="1.5"></path><path d="M409.71 488.99L548.81 409.94" stroke="hsl(228.5, 77.2%, 51.5%)" stroke-width="1.5"></path><path d="M409.71 488.99L376.81 700.61" stroke="hsl(228.5, 77.2%, 51.5%)" stroke-width="1.5"></path><path d="M409.71 488.99L244.99 638.92" stroke="hsl(228.5, 77.2%, 51.5%)" stroke-width="1.5"></path><path d="M376.81 700.61L376.81 700.61" stroke="hsl(228.5, 77.2%, 51.5%)" stroke-width="1.5"></path><path d="M376.81 700.61L507.8 516.75" stroke="hsl(228.5, 77.2%, 51.5%)" stroke-width="1.5"></path><path d="M548.81 409.94L548.81 409.94" stroke="hsl(228.5, 77.2%, 51.5%)" stroke-width="1.5"></path><path d="M548.81 409.94L507.8 516.75" stroke="hsl(228.5, 77.2%, 51.5%)" stroke-width="1.5"></path><path d="M548.81 409.94L794.46 388.35" stroke="hsl(228.5, 77.2%, 51.5%)" stroke-width="1.5"></path><path d="M548.81 409.94L517.69 697.69" stroke="hsl(228.5, 77.2%, 51.5%)" stroke-width="1.5"></path><path d="M507.8 516.75L507.8 516.75" stroke="hsl(228.5, 77.2%, 51.5%)" stroke-width="1.5"></path><path d="M507.8 516.75L666.43 678.25" stroke="hsl(228.5, 77.2%, 51.5%)" stroke-width="1.5"></path><path d="M794.46 388.35L794.46 388.35" stroke="hsl(228.5, 77.2%, 51.5%)" stroke-width="1.5"></path><path d="M793.1 653.94L793.1 653.94" stroke="hsl(228.5, 77.2%, 51.5%)" stroke-width="1.5"></path><path d="M1003.9 345.52L1003.9 345.52" stroke="hsl(228.5, 77.2%, 51.5%)" stroke-width="1.5"></path><path d="M1003.9 345.52L1118.38 351.19" stroke="hsl(228.5, 77.2%, 51.5%)" stroke-width="1.5"></path><path d="M1003.9 345.52L994.08 531.83" stroke="hsl(228.5, 77.2%, 51.5%)" stroke-width="1.5"></path><path d="M1003.9 345.52L1155.52 489.25" stroke="hsl(228.5, 77.2%, 51.5%)" stroke-width="1.5"></path><path d="M1003.9 345.52L794.46 388.35" stroke="hsl(228.5, 77.2%, 51.5%)" stroke-width="1.5"></path><path d="M1003.9 345.52L1256.71 361.56" stroke="hsl(228.5, 77.2%, 51.5%)" stroke-width="1.5"></path><path d="M994.08 531.83L994.08 531.83" stroke="hsl(228.5, 77.2%, 51.5%)" stroke-width="1.5"></path><path d="M994.08 531.83L1155.52 489.25" stroke="hsl(228.5, 77.2%, 51.5%)" stroke-width="1.5"></path><path d="M994.08 531.83L993.61 711.02" stroke="hsl(228.5, 77.2%, 51.5%)" stroke-width="1.5"></path><path d="M993.61 711.02L993.61 711.02" stroke="hsl(228.5, 77.2%, 51.5%)" stroke-width="1.5"></path><path d="M993.61 711.02L793.1 653.94" stroke="hsl(228.5, 77.2%, 51.5%)" stroke-width="1.5"></path><path d="M993.61 711.02L1155.52 489.25" stroke="hsl(228.5, 77.2%, 51.5%)" stroke-width="1.5"></path><path d="M993.61 711.02L1264.79 643" stroke="hsl(228.5, 77.2%, 51.5%)" stroke-width="1.5"></path><path d="M1118.38 351.19L1118.38 351.19" stroke="hsl(228.5, 77.2%, 51.5%)" stroke-width="1.5"></path><path d="M1118.38 351.19L1256.71 361.56" stroke="hsl(228.5, 77.2%, 51.5%)" stroke-width="1.5"></path><path d="M1118.38 351.19L1155.52 489.25" stroke="hsl(228.5, 77.2%, 51.5%)" stroke-width="1.5"></path><path d="M1155.52 489.25L1155.52 489.25" stroke="hsl(228.5, 77.2%, 51.5%)" stroke-width="1.5"></path><path d="M1155.52 489.25L1295.53 542.02" stroke="hsl(228.5, 77.2%, 51.5%)" stroke-width="1.5"></path><path d="M1155.52 489.25L1256.71 361.56" stroke="hsl(228.5, 77.2%, 51.5%)" stroke-width="1.5"></path><path d="M1155.52 489.25L1264.79 643" stroke="hsl(228.5, 77.2%, 51.5%)" stroke-width="1.5"></path><path d="M1285.26 -43.65L1285.26 -43.65" stroke="hsl(228.5, 77.2%, 51.5%)" stroke-width="1.5"></path><path d="M1285.26 -43.65L1435.05 45.65" stroke="hsl(228.5, 77.2%, 51.5%)" stroke-width="1.5"></path><path d="M1285.26 -43.65L1391.7 215.29" stroke="hsl(228.5, 77.2%, 51.5%)" stroke-width="1.5"></path><path d="M1244.23 237.15L1244.23 237.15" stroke="hsl(228.5, 77.2%, 51.5%)" stroke-width="1.5"></path><path d="M1244.23 237.15L1256.71 361.56" stroke="hsl(228.5, 77.2%, 51.5%)" stroke-width="1.5"></path><path d="M1256.71 361.56L1256.71 361.56" stroke="hsl(228.5, 77.2%, 51.5%)" stroke-width="1.5"></path><path d="M1295.53 542.02L1295.53 542.02" stroke="hsl(228.5, 77.2%, 51.5%)" stroke-width="1.5"></path><path d="M1295.53 542.02L1264.79 643" stroke="hsl(228.5, 77.2%, 51.5%)" stroke-width="1.5"></path><path d="M1295.53 542.02L1460.88 489.22" stroke="hsl(228.5, 77.2%, 51.5%)" stroke-width="1.5"></path><path d="M1264.79 643L1264.79 643" stroke="hsl(228.5, 77.2%, 51.5%)" stroke-width="1.5"></path><path d="M1264.79 643L1417.92 705.65" stroke="hsl(228.5, 77.2%, 51.5%)" stroke-width="1.5"></path><path d="M1435.05 45.65L1435.05 45.65" stroke="hsl(228.5, 77.2%, 51.5%)" stroke-width="1.5"></path><path d="M1435.05 45.65L1597.27 86.54" stroke="hsl(228.5, 77.2%, 51.5%)" stroke-width="1.5"></path><path d="M1435.05 45.65L1391.7 215.29" stroke="hsl(228.5, 77.2%, 51.5%)" stroke-width="1.5"></path><path d="M1435.05 45.65L1566.57 206.21" stroke="hsl(228.5, 77.2%, 51.5%)" stroke-width="1.5"></path><path d="M1450.29 368.55L1450.29 368.55" stroke="hsl(228.5, 77.2%, 51.5%)" stroke-width="1.5"></path><path d="M1450.29 368.55L1538.2 360.22" stroke="hsl(228.5, 77.2%, 51.5%)" stroke-width="1.5"></path><path d="M1450.29 368.55L1460.88 489.22" stroke="hsl(228.5, 77.2%, 51.5%)" stroke-width="1.5"></path><path d="M1460.88 489.22L1460.88 489.22" stroke="hsl(228.5, 77.2%, 51.5%)" stroke-width="1.5"></path><path d="M1460.88 489.22L1538.2 360.22" stroke="hsl(228.5, 77.2%, 51.5%)" stroke-width="1.5"></path><path d="M1417.92 705.65L1417.92 705.65" stroke="hsl(228.5, 77.2%, 51.5%)" stroke-width="1.5"></path><path d="M1417.92 705.65L1584.75 707.16" stroke="hsl(228.5, 77.2%, 51.5%)" stroke-width="1.5"></path><path d="M1417.92 705.65L1295.53 542.02" stroke="hsl(228.5, 77.2%, 51.5%)" stroke-width="1.5"></path><path d="M1597.27 86.54L1597.27 86.54" stroke="hsl(228.5, 77.2%, 51.5%)" stroke-width="1.5"></path><path d="M1538.2 360.22L1538.2 360.22" stroke="hsl(228.5, 77.2%, 51.5%)" stroke-width="1.5"></path><path d="M1584.75 707.16L1584.75 707.16" stroke="hsl(228.5, 77.2%, 51.5%)" stroke-width="1.5"></path><path d="M1584.75 707.16L1460.88 489.22" stroke="hsl(228.5, 77.2%, 51.5%)" stroke-width="1.5"></path><path d="M1584.75 707.16L1264.79 643" stroke="hsl(228.5, 77.2%, 51.5%)" stroke-width="1.5"></path><path d="M1584.75 707.16L1295.53 542.02" stroke="hsl(228.5, 77.2%, 51.5%)" stroke-width="1.5"></path><circle r="25" cx="517.69" cy="697.69" fill="url(&quot;#SvgjsRadialGradient1001&quot;)"></circle><circle r="25" cx="694.84" cy="551.91" fill="url(&quot;#SvgjsRadialGradient1001&quot;)"></circle><circle r="25" cx="666.43" cy="678.25" fill="url(&quot;#SvgjsRadialGradient1001&quot;)"></circle><circle r="25" cx="860.6" cy="560.14" fill="url(&quot;#SvgjsRadialGradient1001&quot;)"></circle><circle r="25" cx="1155.5" cy="231.64" fill="url(&quot;#SvgjsRadialGradient1001&quot;)"></circle><circle r="25" cx="1145.81" cy="683.21" fill="url(&quot;#SvgjsRadialGradient1001&quot;)"></circle><circle r="25" cx="1391.7" cy="215.29" fill="url(&quot;#SvgjsRadialGradient1001&quot;)"></circle><circle r="25" cx="1598.4" cy="-83.72" fill="url(&quot;#SvgjsRadialGradient1001&quot;)"></circle><circle r="25" cx="1566.57" cy="206.21" fill="url(&quot;#SvgjsRadialGradient1001&quot;)"></circle><circle r="25" cx="1572.89" cy="529.99" fill="url(&quot;#SvgjsRadialGradient1001&quot;)"></circle><circle r="5" cx="-73.16" cy="497.07" fill="#8b9ad9"></circle><circle r="5" cx="-87.78" cy="651.62" fill="#8b9ad9"></circle><circle r="5" cx="59.26" cy="557.81" fill="#8b9ad9"></circle><circle r="5" cx="83.4" cy="648.51" fill="#8b9ad9"></circle><circle r="5" cx="252.84" cy="495.28" fill="#8b9ad9"></circle><circle r="5" cx="244.99" cy="638.92" fill="#8b9ad9"></circle><circle r="5" cx="409.71" cy="488.99" fill="#8b9ad9"></circle><circle r="5" cx="376.81" cy="700.61" fill="#8b9ad9"></circle><circle r="5" cx="548.81" cy="409.94" fill="#8b9ad9"></circle><circle r="5" cx="507.8" cy="516.75" fill="#8b9ad9"></circle><circle r="5" cx="794.46" cy="388.35" fill="#8b9ad9"></circle><circle r="5" cx="793.1" cy="653.94" fill="#8b9ad9"></circle><circle r="5" cx="1003.9" cy="345.52" fill="#8b9ad9"></circle><circle r="5" cx="994.08" cy="531.83" fill="#8b9ad9"></circle><circle r="5" cx="993.61" cy="711.02" fill="#8b9ad9"></circle><circle r="5" cx="1118.38" cy="351.19" fill="#8b9ad9"></circle><circle r="5" cx="1155.52" cy="489.25" fill="#8b9ad9"></circle><circle r="5" cx="1285.26" cy="-43.65" fill="#8b9ad9"></circle><circle r="5" cx="1244.23" cy="237.15" fill="#8b9ad9"></circle><circle r="5" cx="1256.71" cy="361.56" fill="#8b9ad9"></circle><circle r="5" cx="1295.53" cy="542.02" fill="#8b9ad9"></circle><circle r="5" cx="1264.79" cy="643" fill="#8b9ad9"></circle><circle r="5" cx="1435.05" cy="45.65" fill="#8b9ad9"></circle><circle r="5" cx="1450.29" cy="368.55" fill="#8b9ad9"></circle><circle r="5" cx="1460.88" cy="489.22" fill="#8b9ad9"></circle><circle r="5" cx="1417.92" cy="705.65" fill="#8b9ad9"></circle><circle r="5" cx="1597.27" cy="86.54" fill="#8b9ad9"></circle><circle r="5" cx="1538.2" cy="360.22" fill="#8b9ad9"></circle><circle r="5" cx="1584.75" cy="707.16" fill="#8b9ad9"></circle></g><defs><mask id="SvgjsMask1000"><rect width="1440" height="560" fill="#ffffff"></rect></mask><radialGradient id="SvgjsRadialGradient1001"><stop stop-color="#ffffff" offset="0.1"></stop><stop stop-color="#1735b3" offset="0.2"></stop><stop stop-color="rgba(23, 53, 179, 0)" offset="1"></stop></radialGradient></defs></svg>